<svg width="32" height="34" viewBox="0 0 32 34" fill="none" xmlns="http://www.w3.org/2000/svg">
<path d="M19.8667 11.6999C20.3121 11.2545 20.3121 10.5324 19.8667 10.087C19.4213 9.64158 18.6992 9.64158 18.2538 10.087L11.767 16.5737C11.7636 16.577 11.7603 16.5804 11.7569 16.5837C11.5367 16.804 11.4253 17.0919 11.4229 17.3805C11.4204 17.6757 11.5317 17.9716 11.7569 18.1968C11.7603 18.2002 11.7637 18.2036 11.7671 18.2069L18.2538 24.6936C18.6992 25.139 19.4213 25.139 19.8667 24.6936C20.3121 24.2482 20.3121 23.526 19.8667 23.0806L14.1764 17.3903L19.8667 11.6999Z" fill="white"/>
</svg>
