<svg width="21" height="21" viewBox="0 0 21 21" fill="none" xmlns="http://www.w3.org/2000/svg">
<path d="M10.6963 0.5C8.71848 0.5 6.78508 1.08649 5.14059 2.1853C3.4961 3.28412 2.21437 4.8459 1.4575 6.67317C0.700622 8.50043 0.502589 10.5111 0.888441 12.4509C1.27429 14.3907 2.2267 16.1725 3.62523 17.5711C5.02375 18.9696 6.80558 19.922 8.74539 20.3079C10.6852 20.6937 12.6959 20.4957 14.5231 19.7388C16.3504 18.9819 17.9122 17.7002 19.011 16.0557C20.1098 14.4112 20.6963 12.4778 20.6963 10.5C20.6963 9.18678 20.4376 7.88642 19.9351 6.67317C19.4325 5.45991 18.6959 4.35752 17.7674 3.42893C16.8388 2.50035 15.7364 1.76375 14.5231 1.2612C13.3099 0.758658 12.0095 0.5 10.6963 0.5ZM10.6963 18.5C8.57456 18.5 6.53973 17.6571 5.03944 16.1569C3.53915 14.6566 2.69629 12.6217 2.69629 10.5C2.69408 8.72334 3.28931 6.99755 4.38629 5.6L15.5963 16.81C14.1987 17.907 12.4729 18.5022 10.6963 18.5ZM17.0063 15.4L5.79629 4.19C7.19384 3.09302 8.91964 2.49779 10.6963 2.5C12.818 2.5 14.8529 3.34285 16.3531 4.84315C17.8534 6.34344 18.6963 8.37827 18.6963 10.5C18.6985 12.2767 18.1033 14.0025 17.0063 15.4Z" fill="#FF2D55"/>
</svg>
