<svg width="16" height="21" viewBox="0 0 16 21" fill="none" xmlns="http://www.w3.org/2000/svg">
<path opacity="0.4" d="M15.728 7.76779C15.6457 7.60435 15.5197 7.4669 15.364 7.37068C15.2083 7.27447 15.029 7.22324 14.846 7.22269H9.89047V1.2761C9.9011 1.05873 9.8399 0.843909 9.71631 0.664787C9.59271 0.485664 9.4136 0.352201 9.20661 0.284998C9.00762 0.219529 8.79301 0.218793 8.59358 0.282896C8.39414 0.346999 8.22015 0.472644 8.09658 0.641793L0.167773 11.5439C0.0684304 11.6875 0.008779 11.8547 -0.00514409 12.0288C-0.0190672 12.2028 0.0132322 12.3774 0.0884847 12.535C0.157784 12.7151 0.27817 12.8711 0.434864 12.9838C0.591559 13.0964 0.777743 13.1609 0.970564 13.1693H5.92607V19.1159C5.92622 19.3249 5.99244 19.5285 6.11526 19.6976C6.23808 19.8667 6.41122 19.9926 6.60992 20.0574C6.7095 20.0883 6.81293 20.105 6.91717 20.107C7.07355 20.1074 7.22781 20.0708 7.36733 20.0002C7.50686 19.9295 7.62769 19.8269 7.71996 19.7006L15.6488 8.79854C15.7555 8.65066 15.8195 8.47619 15.8334 8.29432C15.8474 8.11246 15.811 7.93026 15.728 7.76779ZM7.90827 16.0633V12.1782C7.90827 11.9153 7.80385 11.6632 7.61798 11.4774C7.43211 11.2915 7.18002 11.1871 6.91717 11.1871H2.95276L7.90827 4.32868V8.21379C7.90827 8.47664 8.01269 8.72873 8.19855 8.9146C8.38442 9.10047 8.63651 9.20489 8.89937 9.20489H12.8638L7.90827 16.0633Z" fill="white"/>
</svg>
