<svg width="21" height="20" viewBox="0 0 21 20" fill="none" xmlns="http://www.w3.org/2000/svg">
<path d="M13.4163 6.79391L9.12629 11.0939L7.47629 9.44391C7.38665 9.33922 7.27633 9.2542 7.15226 9.19418C7.0282 9.13416 6.89307 9.10043 6.75535 9.09511C6.61763 9.08979 6.4803 9.11299 6.35197 9.16327C6.22365 9.21354 6.1071 9.2898 6.00964 9.38726C5.91219 9.48471 5.83593 9.60126 5.78566 9.72958C5.73538 9.85791 5.71218 9.99524 5.71749 10.133C5.72281 10.2707 5.75654 10.4058 5.81657 10.5299C5.87659 10.6539 5.96161 10.7643 6.06629 10.8539L8.41629 13.2139C8.50973 13.3066 8.62055 13.3799 8.74239 13.4297C8.86422 13.4794 8.99469 13.5047 9.12629 13.5039C9.38863 13.5028 9.64003 13.3987 9.82629 13.2139L14.8263 8.21391C14.92 8.12094 14.9944 8.01034 15.0452 7.88848C15.096 7.76662 15.1221 7.63592 15.1221 7.50391C15.1221 7.37189 15.096 7.24119 15.0452 7.11933C14.9944 6.99747 14.92 6.88687 14.8263 6.79391C14.6389 6.60766 14.3855 6.50311 14.1213 6.50311C13.8571 6.50311 13.6037 6.60766 13.4163 6.79391ZM10.6963 0.00390625C8.71848 0.00390625 6.78508 0.590396 5.14059 1.68921C3.4961 2.78802 2.21437 4.34981 1.4575 6.17707C0.700622 8.00433 0.502589 10.015 0.888441 11.9548C1.27429 13.8946 2.2267 15.6764 3.62523 17.075C5.02375 18.4735 6.80558 19.4259 8.74539 19.8118C10.6852 20.1976 12.6959 19.9996 14.5231 19.2427C16.3504 18.4858 17.9122 17.2041 19.011 15.5596C20.1098 13.9151 20.6963 11.9817 20.6963 10.0039C20.6963 8.69069 20.4376 7.39033 19.9351 6.17707C19.4325 4.96382 18.6959 3.86142 17.7674 2.93284C16.8388 2.00425 15.7364 1.26766 14.5231 0.765111C13.3099 0.262564 12.0095 0.00390625 10.6963 0.00390625ZM10.6963 18.0039C9.11404 18.0039 7.56732 17.5347 6.25173 16.6557C4.93614 15.7766 3.91076 14.5272 3.30526 13.0654C2.69976 11.6036 2.54133 9.99503 2.85001 8.44318C3.15869 6.89134 3.92062 5.46587 5.03944 4.34705C6.15826 3.22823 7.58372 2.46631 9.13557 2.15762C10.6874 1.84894 12.296 2.00737 13.7578 2.61287C15.2196 3.21837 16.469 4.24375 17.348 5.55934C18.2271 6.87494 18.6963 8.42166 18.6963 10.0039C18.6963 12.1256 17.8534 14.1605 16.3531 15.6608C14.8529 17.1611 12.818 18.0039 10.6963 18.0039Z" fill="#17CE6B"/>
</svg>
