<svg width="22" height="22" viewBox="0 0 22 22" fill="none" xmlns="http://www.w3.org/2000/svg">
<path d="M11.1503 0.769531C9.09009 0.769531 7.07614 1.38046 5.36312 2.52506C3.65011 3.66966 2.31498 5.29653 1.52657 7.19993C0.738156 9.10333 0.531871 11.1978 0.933801 13.2184C1.33573 15.2391 2.32782 17.0951 3.78462 18.5519C5.24142 20.0087 7.09749 21.0008 9.11812 21.4028C11.1388 21.8047 13.2332 21.5984 15.1366 20.81C17.04 20.0216 18.6669 18.6864 19.8115 16.9734C20.9561 15.2604 21.567 13.2465 21.567 11.1862C21.567 9.81829 21.2976 8.46374 20.7741 7.19993C20.2506 5.93612 19.4833 4.78779 18.516 3.82051C17.5487 2.85323 16.4004 2.08594 15.1366 1.56245C13.8728 1.03897 12.5183 0.769531 11.1503 0.769531ZM11.1503 19.5196C9.50214 19.5196 7.89097 19.0308 6.52056 18.1152C5.15015 17.1995 4.08205 15.898 3.45132 14.3753C2.82059 12.8525 2.65556 11.177 2.9771 9.56047C3.29865 7.94396 4.09232 6.45909 5.25776 5.29365C6.4232 4.12821 7.90805 3.33454 9.52456 3.01299C11.1411 2.69145 12.8166 2.85648 14.3393 3.48721C15.8621 4.11794 17.1636 5.18605 18.0792 6.55646C18.9949 7.92688 19.4837 9.53804 19.4837 11.1862C19.4837 13.3964 18.6057 15.516 17.0429 17.0788C15.4801 18.6416 13.3605 19.5196 11.1503 19.5196ZM15.317 10.1446H12.192V7.01955C12.192 6.74328 12.0822 6.47833 11.8869 6.28298C11.6915 6.08763 11.4266 5.97788 11.1503 5.97788C10.874 5.97788 10.6091 6.08763 10.4137 6.28298C10.2184 6.47833 10.1086 6.74328 10.1086 7.01955V10.1446H6.98365C6.70738 10.1446 6.44243 10.2543 6.24708 10.4497C6.05173 10.645 5.94198 10.91 5.94198 11.1862C5.94198 11.4625 6.05173 11.7274 6.24708 11.9228C6.44243 12.1181 6.70738 12.2279 6.98365 12.2279H10.1086V15.3529C10.1086 15.6292 10.2184 15.8941 10.4137 16.0895C10.6091 16.2848 10.874 16.3946 11.1503 16.3946C11.4266 16.3946 11.6915 16.2848 11.8869 16.0895C12.0822 15.8941 12.192 15.6292 12.192 15.3529V12.2279H15.317C15.5933 12.2279 15.8582 12.1181 16.0536 11.9228C16.2489 11.7274 16.3587 11.4625 16.3587 11.1862C16.3587 10.91 16.2489 10.645 16.0536 10.4497C15.8582 10.2543 15.5933 10.1446 15.317 10.1446Z" fill="white"/>
</svg>
