<svg width="22" height="22" viewBox="0 0 22 22" fill="none" xmlns="http://www.w3.org/2000/svg">
<path d="M20.2223 1.66783C19.8243 1.26216 19.3197 0.977429 18.7666 0.84655C18.2136 0.715671 17.6349 0.743994 17.0973 0.928244L2.35771 5.85534C1.76324 6.04992 1.24384 6.42425 0.8712 6.92663C0.498559 7.42902 0.291057 8.03469 0.277338 8.66004C0.263619 9.28539 0.44436 9.89958 0.794611 10.4178C1.14486 10.9361 1.64735 11.3328 2.23271 11.5533L7.69104 13.6366C7.81533 13.6841 7.9285 13.7568 8.02348 13.85C8.11847 13.9432 8.19324 14.0549 8.24312 14.1783L10.3265 19.647C10.5385 20.2241 10.9234 20.7218 11.4285 21.0722C11.9337 21.4227 12.5346 21.6088 13.1494 21.6054H13.2223C13.8484 21.594 14.4552 21.387 14.9577 21.0134C15.4602 20.6398 15.8332 20.1183 16.0244 19.522L20.9515 4.76159C21.1307 4.22923 21.1573 3.65736 21.0285 3.11063C20.8996 2.5639 20.6204 2.06413 20.2223 1.66783ZM19.0244 4.10534L14.0452 18.8762C13.9874 19.0632 13.8713 19.2267 13.7138 19.3429C13.5564 19.4591 13.3659 19.5219 13.1702 19.522C12.9757 19.5252 12.7848 19.4691 12.6229 19.3612C12.461 19.2533 12.3358 19.0987 12.264 18.9179L10.1806 13.4491C10.0296 13.0517 9.79666 12.6906 9.49696 12.3891C9.19726 12.0876 8.8375 11.8525 8.44104 11.6991L2.97229 9.61577C2.7878 9.54816 2.62922 9.42431 2.51894 9.26169C2.40866 9.09908 2.35226 8.90592 2.35771 8.70951C2.35787 8.51383 2.42064 8.32333 2.53685 8.16589C2.65305 8.00845 2.81659 7.89233 3.00354 7.83451L17.7744 2.90742C17.944 2.8383 18.1299 2.81978 18.3098 2.85411C18.4897 2.88843 18.6558 2.97413 18.788 3.10084C18.9202 3.22755 19.0129 3.38984 19.0549 3.56811C19.0968 3.74637 19.0862 3.93296 19.0244 4.10534Z" fill="white"/>
</svg>
