<svg width="12" height="13" viewBox="0 0 16 15" fill="none" xmlns="http://www.w3.org/2000/svg">
<path d="M7.96884 6.59766C7.78097 6.59766 7.60081 6.67228 7.46797 6.80512C7.33513 6.93796 7.2605 7.11813 7.2605 7.30599V10.1393C7.2605 10.3272 7.33513 10.5074 7.46797 10.6402C7.60081 10.773 7.78097 10.8477 7.96884 10.8477C8.1567 10.8477 8.33686 10.773 8.4697 10.6402C8.60254 10.5074 8.67717 10.3272 8.67717 10.1393V7.30599C8.67717 7.11813 8.60254 6.93796 8.4697 6.80512C8.33686 6.67228 8.1567 6.59766 7.96884 6.59766ZM8.238 3.82099C8.06555 3.75014 7.87212 3.75014 7.69967 3.82099C7.61272 3.8547 7.53328 3.90525 7.46592 3.96974C7.40335 4.03859 7.35304 4.11765 7.31717 4.20349C7.27751 4.28755 7.25811 4.37974 7.2605 4.47266C7.25996 4.56588 7.27783 4.65829 7.31308 4.74459C7.34833 4.83089 7.40027 4.90939 7.46592 4.97557C7.53477 5.03814 7.61383 5.08845 7.69967 5.12432C7.80698 5.16841 7.92348 5.18546 8.03892 5.17399C8.15437 5.16251 8.26523 5.12285 8.36176 5.0585C8.45829 4.99414 8.53753 4.90707 8.59253 4.80491C8.64753 4.70276 8.67659 4.58867 8.67717 4.47266C8.67456 4.28511 8.60119 4.10548 8.47175 3.96974C8.40439 3.90525 8.32495 3.8547 8.238 3.82099ZM7.96884 0.222656C6.56788 0.222656 5.19839 0.638086 4.03355 1.41641C2.8687 2.19474 1.96081 3.301 1.42469 4.59531C0.888567 5.88962 0.748294 7.31385 1.02161 8.68788C1.29492 10.0619 1.96954 11.324 2.96016 12.3147C3.95078 13.3053 5.21291 13.9799 6.58695 14.2532C7.96098 14.5265 9.3852 14.3863 10.6795 13.8501C11.9738 13.314 13.0801 12.4061 13.8584 11.2413C14.6367 10.0764 15.0522 8.70694 15.0522 7.30599C15.0522 6.37579 14.869 5.4547 14.513 4.59531C14.157 3.73593 13.6353 2.95506 12.9775 2.29732C12.3198 1.63957 11.5389 1.11781 10.6795 0.761843C9.82012 0.405872 8.89903 0.222656 7.96884 0.222656ZM7.96884 12.9727C6.84807 12.9727 5.75248 12.6403 4.8206 12.0176C3.88872 11.395 3.16241 10.51 2.73352 9.47453C2.30462 8.43908 2.1924 7.2997 2.41105 6.20048C2.6297 5.10125 3.1694 4.09155 3.9619 3.29905C4.75439 2.50655 5.7641 1.96686 6.86332 1.74821C7.96255 1.52956 9.10193 1.64178 10.1374 2.07067C11.1728 2.49957 12.0578 3.22588 12.6805 4.15776C13.3032 5.08964 13.6355 6.18523 13.6355 7.30599C13.6355 8.80888 13.0385 10.2502 11.9758 11.3129C10.9131 12.3756 9.47173 12.9727 7.96884 12.9727Z" fill="#716D9C"/>
</svg>
