<svg width="20" height="24" viewBox="0 0 20 24" fill="none" xmlns="http://www.w3.org/2000/svg">
<path d="M5.63908 17.4362C5.40833 17.4362 5.18277 17.5047 4.99091 17.6329C4.79906 17.7611 4.64952 17.9433 4.56122 18.1565C4.47292 18.3696 4.44981 18.6042 4.49483 18.8305C4.53985 19.0568 4.65096 19.2647 4.81412 19.4279C4.97728 19.591 5.18516 19.7022 5.41147 19.7472C5.63779 19.7922 5.87236 19.7691 6.08554 19.6808C6.29872 19.5925 6.48093 19.4429 6.60913 19.2511C6.73732 19.0592 6.80575 18.8337 6.80575 18.6029C6.80575 18.2935 6.68283 17.9967 6.46404 17.778C6.24524 17.5592 5.9485 17.4362 5.63908 17.4362ZM10.3057 0.519531C5.63908 0.519531 0.972412 2.11787 0.972412 5.18621V19.1863C0.972412 22.2546 5.63908 23.8529 10.3057 23.8529C14.9724 23.8529 19.6391 22.2546 19.6391 19.1863V5.18621C19.6391 2.11787 14.9724 0.519531 10.3057 0.519531ZM17.3057 19.1863C17.3057 20.0146 14.6457 21.5196 10.3057 21.5196C5.96575 21.5196 3.30575 20.0146 3.30575 19.1863V15.3712C5.48983 16.4095 7.88829 16.9172 10.3057 16.8529C12.7232 16.9172 15.1217 16.4095 17.3057 15.3712V19.1863ZM17.3057 12.1862C17.3057 13.0146 14.6457 14.5196 10.3057 14.5196C5.96575 14.5196 3.30575 13.0146 3.30575 12.1862V8.37122C5.48983 9.40951 7.88829 9.91718 10.3057 9.85289C12.7232 9.91718 15.1217 9.40951 17.3057 8.37122V12.1862ZM10.3057 7.51955C5.96575 7.51955 3.30575 6.01455 3.30575 5.18621C3.30575 4.35788 5.96575 2.85287 10.3057 2.85287C14.6457 2.85287 17.3057 4.35788 17.3057 5.18621C17.3057 6.01455 14.6457 7.51955 10.3057 7.51955ZM5.63908 10.4362C5.40833 10.4362 5.18277 10.5047 4.99091 10.6328C4.79906 10.761 4.64952 10.9432 4.56122 11.1564C4.47292 11.3696 4.44981 11.6042 4.49483 11.8305C4.53985 12.0568 4.65096 12.2647 4.81412 12.4279C4.97728 12.591 5.18516 12.7021 5.41147 12.7471C5.63779 12.7922 5.87236 12.7691 6.08554 12.6808C6.29872 12.5925 6.48093 12.4429 6.60913 12.2511C6.73732 12.0592 6.80575 11.8336 6.80575 11.6029C6.80575 11.2935 6.68283 10.9967 6.46404 10.7779C6.24524 10.5591 5.9485 10.4362 5.63908 10.4362Z" fill="white"/>
</svg>
