<svg width="19" height="20" viewBox="0 0 19 20" fill="none" xmlns="http://www.w3.org/2000/svg">
<path d="M16.7195 9.0871C16.5206 9.0871 16.3298 9.17051 16.1892 9.31897C16.0485 9.46744 15.9695 9.6688 15.9695 9.87876C15.9784 11.3616 15.4972 12.8013 14.6087 13.9499C13.7203 15.0985 12.4801 15.8841 11.102 16.1714C9.72378 16.4587 8.29382 16.2298 7.05836 15.524C5.8229 14.8182 4.85929 13.6797 4.33348 12.3046C3.80767 10.9296 3.75258 9.40401 4.1777 7.9907C4.60282 6.57738 5.48154 5.36479 6.66251 4.56176C7.84348 3.75872 9.25278 3.41553 10.6477 3.59128C12.0426 3.76702 13.3358 4.45072 14.3045 5.5246H12.5045C12.3056 5.5246 12.1148 5.608 11.9742 5.75647C11.8335 5.90494 11.7545 6.1063 11.7545 6.31626C11.7545 6.52623 11.8335 6.72759 11.9742 6.87606C12.1148 7.02452 12.3056 7.10793 12.5045 7.10793H15.902C16.1009 7.10793 16.2917 7.02452 16.4323 6.87606C16.573 6.72759 16.652 6.52623 16.652 6.31626V2.75376C16.652 2.5438 16.573 2.34244 16.4323 2.19397C16.2917 2.0455 16.1009 1.9621 15.902 1.9621C15.7031 1.9621 15.5123 2.0455 15.3717 2.19397C15.231 2.34244 15.152 2.5438 15.152 2.75376V4.15501C13.903 2.89473 12.28 2.12831 10.5575 1.98532C8.83495 1.84232 7.11846 2.33152 5.69817 3.37023C4.27789 4.40893 3.24094 5.93342 2.76261 7.686C2.28427 9.43858 2.39389 11.3117 3.07294 12.9888C3.75199 14.666 4.95881 16.0441 6.48941 16.8904C8.02 17.7367 9.78048 17.9992 11.4733 17.6335C13.166 17.2678 14.6873 16.2964 15.7798 14.8834C16.8724 13.4705 17.4692 11.7026 17.4695 9.87876C17.4695 9.6688 17.3905 9.46744 17.2498 9.31897C17.1092 9.17051 16.9184 9.0871 16.7195 9.0871Z" fill="white"/>
</svg>
