<svg width="22" height="22" viewBox="0 0 22 22" fill="none" xmlns="http://www.w3.org/2000/svg">
<path d="M7.83506 9.10324C8.03023 9.29725 8.29424 9.40615 8.56944 9.40615C8.84463 9.40615 9.10864 9.29725 9.30381 9.10324C9.49782 8.90807 9.60672 8.64406 9.60672 8.36887C9.60672 8.09367 9.49782 7.82966 9.30381 7.63449L2.77256 1.07197C2.57641 0.875821 2.31037 0.765625 2.03298 0.765625C1.75558 0.765625 1.48954 0.875821 1.29339 1.07197C1.09724 1.26812 0.987048 1.53416 0.987048 1.81156C0.987048 2.08895 1.09724 2.35499 1.29339 2.55114L7.83506 9.10324ZM20.6476 13.2699C20.3713 13.2699 20.1063 13.3797 19.911 13.575C19.7156 13.7704 19.6059 14.0353 19.6059 14.3116V18.0512L14.8559 13.2699C14.657 13.071 14.3872 12.9593 14.1059 12.9593C13.8246 12.9593 13.5548 13.071 13.3559 13.2699C13.157 13.4688 13.0452 13.7386 13.0452 14.0199C13.0452 14.3012 13.157 14.571 13.3559 14.7699L18.1371 19.5199H14.3976C14.1213 19.5199 13.8563 19.6297 13.661 19.825C13.4656 20.0204 13.3559 20.2853 13.3559 20.5616C13.3559 20.8379 13.4656 21.1028 13.661 21.2982C13.8563 21.4935 14.1213 21.6033 14.3976 21.6033H20.6476C20.7837 21.6016 20.9182 21.5733 21.0434 21.5199C21.2979 21.4142 21.5002 21.212 21.6059 20.9574C21.6593 20.8322 21.6876 20.6977 21.6892 20.5616V14.3116C21.6892 14.0353 21.5795 13.7704 21.3841 13.575C21.1888 13.3797 20.9238 13.2699 20.6476 13.2699ZM21.6059 1.41572C21.5002 1.16119 21.2979 0.958924 21.0434 0.853221C20.9182 0.799844 20.7837 0.771533 20.6476 0.769887H14.3976C14.1213 0.769887 13.8563 0.879634 13.661 1.07498C13.4656 1.27034 13.3559 1.53529 13.3559 1.81156C13.3559 2.08782 13.4656 2.35278 13.661 2.54813C13.8563 2.74348 14.1213 2.85323 14.3976 2.85323H18.1371L1.15798 19.822C1.06034 19.9189 0.982849 20.0341 0.929965 20.161C0.877081 20.2879 0.849854 20.4241 0.849854 20.5616C0.849854 20.6991 0.877081 20.8353 0.929965 20.9622C0.982849 21.0891 1.06034 21.2044 1.15798 21.3012C1.25481 21.3988 1.37002 21.4763 1.49696 21.5292C1.6239 21.5821 1.76005 21.6093 1.89756 21.6093C2.03507 21.6093 2.17122 21.5821 2.29816 21.5292C2.4251 21.4763 2.54031 21.3988 2.63714 21.3012L19.6059 4.32198V8.06157C19.6059 8.33784 19.7156 8.60279 19.911 8.79815C20.1063 8.9935 20.3713 9.10324 20.6476 9.10324C20.9238 9.10324 21.1888 8.9935 21.3841 8.79815C21.5795 8.60279 21.6892 8.33784 21.6892 8.06157V1.81156C21.6876 1.67543 21.6593 1.54095 21.6059 1.41572Z" fill="white"/>
</svg>
