<svg fill="#e84530" version="1.1" id="Capa_1" xmlns="http://www.w3.org/2000/svg" xmlns:xlink="http://www.w3.org/1999/xlink" width="64px" height="64px" viewBox="0 0 312.069 312.069" xml:space="preserve"><g id="SVGRepo_bgCarrier" stroke-width="0"></g><g id="SVGRepo_tracerCarrier" stroke-linecap="round" stroke-linejoin="round"></g><g id="SVGRepo_iconCarrier"> <g> <g> <path d="M299.081,105.669c0-7.962-6.455-14.427-14.417-14.427h-48.459V80.176C236.205,35.959,200.225,0,156.026,0 c-44.205,0-80.182,35.959-80.182,80.176v11.073H27.403c-7.968,0-14.42,6.464-14.42,14.426v54.257h286.092v-54.263H299.081z M207.364,91.242H104.688V80.176c0-28.315,23.034-51.344,51.344-51.344c28.304,0,51.338,23.022,51.338,51.344v11.066H207.364z"></path> <path d="M12.989,297.646c0,7.962,6.452,14.424,14.42,14.424h257.266c7.963,0,14.411-6.462,14.411-14.424V191.564H12.989V297.646z"></path> </g> </g> </g></svg>